<svg width="40" height="40" viewBox="0 0 40 40" fill="none" xmlns="http://www.w3.org/2000/svg">
<circle opacity="0.1" cx="20" cy="20" r="19.5" stroke="#F3EFE4"/>
<path d="M26.7355 16.096C26.0402 14.9037 25.0967 13.9594 23.9036 13.2649C22.7113 12.5703 21.4101 12.2227 19.9999 12.2227C18.5898 12.2227 17.2886 12.5703 16.0955 13.2649C14.9032 13.9594 13.9589 14.9037 13.2644 16.096C12.5698 17.2883 12.2222 18.5903 12.2222 20.0004C12.2222 21.4105 12.5691 22.7125 13.2644 23.9049C13.9597 25.098 14.9032 26.0414 16.0963 26.736C17.2886 27.4305 18.5898 27.7782 19.9999 27.7782C21.4101 27.7782 22.7113 27.4305 23.9044 26.736C25.0967 26.0414 26.0409 25.098 26.7363 23.9049C27.4308 22.7125 27.7777 21.4105 27.7777 20.0004C27.7777 18.5903 27.4308 17.2883 26.7355 16.096ZM19.9999 13.5138C21.5555 13.5138 22.9337 14.0115 24.1377 15.0063C23.4222 15.9194 22.3597 16.6708 20.9488 17.2619C20.1695 15.8518 19.3248 14.6742 18.4125 13.7308C18.9429 13.5861 19.4703 13.5138 19.9999 13.5138ZM14.9522 15.956C15.5386 15.2194 16.2402 14.6447 17.0607 14.2293C18.0034 15.1634 18.8691 16.3293 19.6585 17.7293C18.1029 18.196 16.4587 18.4293 14.7266 18.4293C14.2809 18.4293 13.9442 18.4192 13.7155 18.3982C13.9543 17.5061 14.3665 16.6925 14.9522 15.956ZM13.5133 20.0004C13.5133 19.9584 13.5156 19.9071 13.5211 19.8449C13.5265 19.7827 13.5288 19.7313 13.5288 19.6893C13.7264 19.7002 14.0274 19.7049 14.4318 19.7049C16.5054 19.7049 18.4343 19.4194 20.2177 18.8493C20.3632 19.1394 20.5141 19.4661 20.6688 19.8293C19.6422 20.0572 18.5891 20.6118 17.5103 21.4938C16.4315 22.3758 15.6444 23.3037 15.1466 24.2782C14.0577 23.0439 13.5133 21.6182 13.5133 20.0004ZM19.9999 26.4871C18.5268 26.4871 17.2046 26.0305 16.0325 25.119C16.4999 24.1958 17.2178 23.313 18.1877 22.4738C19.1568 21.6338 20.1189 21.1103 21.0733 20.9027C21.6737 22.5617 22.0789 24.2774 22.2866 26.0515C21.5291 26.3417 20.7668 26.4871 19.9999 26.4871ZM25.5066 23.4071C24.9886 24.2362 24.3197 24.916 23.4999 25.4457C23.3133 23.8279 22.9555 22.2513 22.4274 20.716C23.1523 20.6647 23.8002 20.6382 24.3718 20.6382C24.9933 20.6382 25.6832 20.6647 26.4399 20.716C26.3357 21.6804 26.0246 22.5772 25.5066 23.4071ZM24.5422 19.5182C23.6399 19.5182 22.8054 19.5548 22.0377 19.6271C21.8402 19.1192 21.6644 18.6992 21.5088 18.3671C23.1157 17.6624 24.2559 16.8069 24.9303 15.8004C25.8636 16.9002 26.3723 18.1548 26.4547 19.5649C25.8232 19.5338 25.1854 19.5182 24.5422 19.5182Z" fill="#F3EFE4"/>
</svg>
