<svg width="40" height="40" viewBox="0 0 40 40" fill="none" xmlns="http://www.w3.org/2000/svg">
<circle opacity="0.1" cx="20" cy="20" r="19.5" stroke="#F3EFE4"/>
<path d="M27.4913 16.7236C27.4555 15.9101 27.3239 15.3508 27.1355 14.8662C26.941 14.3517 26.6419 13.8912 26.2501 13.5083C25.8672 13.1195 25.4036 12.8173 24.8951 12.626C24.4077 12.4375 23.8513 12.3059 23.0378 12.2701C22.2182 12.2312 21.958 12.2222 19.8792 12.2222C17.8005 12.2222 17.5403 12.2312 16.7237 12.267C15.9102 12.3029 15.3509 12.4346 14.8664 12.6229C14.3518 12.8173 13.8912 13.1164 13.5084 13.5083C13.1195 13.8912 12.8175 14.3548 12.626 14.8633C12.4376 15.3508 12.306 15.9071 12.2701 16.7206C12.2312 17.5402 12.2222 17.8004 12.2222 19.8792C12.2222 21.9579 12.2312 22.2181 12.2671 23.0347C12.303 23.8482 12.4346 24.4075 12.6231 24.8921C12.8175 25.4066 13.1195 25.8671 13.5084 26.25C13.8912 26.6388 14.3548 26.941 14.8633 27.1324C15.3509 27.3208 15.9071 27.4524 16.7208 27.4882C17.5372 27.5242 17.7975 27.5331 19.8763 27.5331C21.9551 27.5331 22.2152 27.5242 23.0318 27.4882C23.8453 27.4524 24.4046 27.3208 24.8892 27.1324C25.9181 26.7345 26.7317 25.921 27.1295 24.8921C27.3178 24.4046 27.4495 23.8482 27.4854 23.0347C27.5213 22.2181 27.5303 21.9579 27.5303 19.8792C27.5303 17.8004 27.5272 17.5402 27.4913 16.7236ZM26.1126 22.9749C26.0796 23.7226 25.954 24.1264 25.8493 24.3956C25.5921 25.0626 25.0627 25.592 24.3956 25.8493C24.1265 25.954 23.7198 26.0796 22.9749 26.1124C22.1673 26.1484 21.9251 26.1572 19.8823 26.1572C17.8394 26.1572 17.5941 26.1484 16.7895 26.1124C16.0417 26.0796 15.6379 25.954 15.3688 25.8493C15.0368 25.7266 14.7347 25.5322 14.4894 25.2779C14.2352 25.0297 14.0408 24.7306 13.9181 24.3986C13.8134 24.1294 13.6878 23.7226 13.655 22.9779C13.619 22.1703 13.6101 21.928 13.6101 19.8851C13.6101 17.8422 13.619 17.597 13.655 16.7925C13.6878 16.0447 13.8134 15.6409 13.9181 15.3717C14.0408 15.0397 14.2352 14.7377 14.4925 14.4923C14.7406 14.2381 15.0397 14.0436 15.3718 13.9211C15.641 13.8164 16.0478 13.6908 16.7925 13.6579C17.6001 13.622 17.8424 13.613 19.8852 13.613C21.9311 13.613 22.1733 13.622 22.978 13.6579C23.7257 13.6908 24.1295 13.8164 24.3987 13.9211C24.7306 14.0436 25.0328 14.2381 25.278 14.4923C25.5322 14.7406 25.7266 15.0397 25.8493 15.3717C25.954 15.6409 26.0796 16.0476 26.1126 16.7925C26.1484 17.6 26.1574 17.8422 26.1574 19.8851C26.1574 21.928 26.1484 22.1673 26.1126 22.9749Z" fill="#F3EFE4"/>
<path d="M19.8785 15.9463C17.7071 15.9463 15.9453 17.7079 15.9453 19.8795C15.9453 22.051 17.7071 23.8127 19.8785 23.8127C22.05 23.8127 23.8117 22.051 23.8117 19.8795C23.8117 17.7079 22.05 15.9463 19.8785 15.9463ZM19.8785 22.4308C18.4698 22.4308 17.3271 21.2883 17.3271 19.8795C17.3271 18.4707 18.4698 17.3281 19.8785 17.3281C21.2873 17.3281 22.4299 18.4707 22.4299 19.8795C22.4299 21.2883 21.2873 22.4308 19.8785 22.4308Z" fill="#F3EFE4"/>
<path d="M24.8856 15.7901C24.8856 16.2971 24.4745 16.7082 23.9674 16.7082C23.4604 16.7082 23.0494 16.2971 23.0494 15.7901C23.0494 15.283 23.4604 14.8721 23.9674 14.8721C24.4745 14.8721 24.8856 15.283 24.8856 15.7901Z" fill="#F3EFE4"/>
</svg>
